# xmcd CD Database Entry
#
# Track frame offsets:
# 183
# 68808
# 89538
# 107670
# 124470
# 194433
# 207445
# 240233
#
# Disc length: 3485 seconds
#
# Revision: 1
# Processed by: cddbd v1.4b41PL1 Copyright (c) Steve Scherf et al.
# Submitted via: tcd 2.0b
#
DISCID=710d9b08
DTITLE=Fleetwood Mac - They Play On
DYEAR=1900
DGENRE=
TTITLE0=Rattlesnake Shake - Underway
TTITLE1=Stranger Blues
TTITLE2=World in Harmony
TTITLE3=Tiger
TTITLE4=The green Manalishi
TTITLE5=Great Balls of fire
TTITLE6=Twist and Shout
TTITLE7=Whole lot of Loving
EXTD=
EXTT0=
EXTT1=
EXTT2=
EXTT3=
EXTT4=
EXTT5=
EXTT6=
EXTT7=
PLAYORDER=
